<?xml version="1.0" encoding="utf-8"?>
<!-- Generator: Adobe Illustrator 27.1.1, SVG Export Plug-In . SVG Version: 6.00 Build 0)  -->
<svg version="1.1" id="Layer_1" xmlns="http://www.w3.org/2000/svg" xmlns:xlink="http://www.w3.org/1999/xlink" x="0px" y="0px"
	 viewBox="0 0 184.6 179.3" style="enable-background:new 0 0 184.6 179.3;" xml:space="preserve">
<style type="text/css">
	.st0{fill:none;stroke:#111111;stroke-width:7;stroke-miterlimit:10;}
	:root{stroke:#111111;fill:#111111;}
</style>
<g>
	<g>
		<path d="M77,136.4c-2.1-1.4-3.1-3.8-3.1-7.2c0-2.1,0.4-4.7,1.3-8c0.8-3.3,2.2-7.8,4-13.7c3-9.5,5.2-17.6,6.8-24.1
			c1.6-6.5,2.3-12.8,2.3-18.8c0-3.6-0.1-6.5-0.3-8.7c-0.2-2.2-0.8-3.9-1.8-5.4c-1-1.4-2.5-2.1-4.7-2.1c-2.6,0-4.8,1-6.6,3.1
			c-1.8,2-3.1,4.6-3.9,7.6c-0.8,3-1.3,5.9-1.3,8.8c0,2.5,0.3,4.6,1,6.2c-2.8,0-4.9-0.8-6.2-2.3c-1.3-1.5-1.9-3.5-1.9-6
			c0-3.2,1-6.3,2.9-9.5c1.9-3.2,4.5-5.8,7.8-7.9c3.2-2.1,6.6-3.1,10.2-3.1c4.6,0,8.1,1.8,10.5,5.5c2.4,3.7,3.5,8.7,3.5,15.1
			c0,5.6-0.8,11.5-2.3,17.7c-1.5,6.2-3.7,13.7-6.5,22.4c-2,6.1-3.5,11-4.4,14.8c-1,3.8-1.5,7-1.5,9.6c0,1.5,0.2,2.7,0.7,3.4
			c0.5,0.7,1.4,1.1,2.7,1.1c3.6,0,7.9-3.2,12.9-9.5c5-6.3,9.5-13.7,13.6-22.2c4-8.4,6.4-15.2,7.1-20.4c2.3,0,4,0.6,5.1,1.8
			c1.1,1.2,1.7,2.5,1.7,3.9c0,1-0.3,2.3-0.9,4c-0.6,1.7-1.7,4.5-3.3,8.3c-2.7,6.5-4.8,11.9-6.3,16.4c-1.4,4.5-2.2,8.7-2.2,12.8
			c0,1.6,0.2,2.8,0.6,3.6c0.4,0.8,1.3,1.2,2.6,1.2c4.2,0,9.5-4,16-12.1c6.5-8.1,12.1-17.6,16.9-28.6c4.8-11,7.2-20.5,7.2-28.5
			c0-3.6-0.6-6.4-1.7-8.3c-1.1-1.9-2.6-3.1-4.6-3.8c1.1-1.8,2.2-3.1,3.3-4c1.1-0.9,2.2-1.3,3.3-1.3c1.8,0,3.4,1.1,4.8,3.3
			c1.4,2.2,2.1,5.4,2.1,9.5c0,8.2-2.8,18.6-8.5,31c-5.7,12.4-12.5,23.3-20.3,32.5s-14.8,13.8-20.8,13.8c-2.5,0-4.8-0.8-6.8-2.2
			c-2-1.5-3-3.6-3-6.4c0-2.1,0.8-5.5,2.3-10.4c-4.1,5.8-8.2,10.5-12.2,13.9c-4,3.4-7.8,5.1-11.4,5.1C81.4,138.4,79.1,137.8,77,136.4
			z"/>
	</g>
	<g>
		<path d="M33,129.5c-3.6-1.5-6.6-3.9-8.7-7s-3.2-6.9-3.2-11.4c0-5.5,1.5-9.4,4.4-11.8s6.3-3.6,10.1-3.6c-2.1,2.2-3.6,4.7-4.7,7.4
			c-1.1,2.7-1.6,5.4-1.6,8.1c0,4.6,1.5,8.5,4.5,11.5c3,3.1,7.3,4.6,12.9,4.6c3.6,0,7-0.7,10.2-2c3.2-1.3,5.9-3.2,7.9-5.8
			C67,117,68,114,68,110.5c0-3.1-0.8-5.8-2.3-8.1c-1.5-2.3-3.4-4.3-5.7-6c-2.3-1.7-5.3-3.6-9.1-5.9c-3.9-2.3-7-4.3-9.3-6.1
			c-2.3-1.7-4.3-3.8-5.9-6.3c-1.6-2.5-2.4-5.3-2.4-8.5c0-4.5,1.4-9.1,4.1-13.9c2.7-4.8,6.6-8.8,11.6-12.1c5-3.2,10.6-4.8,16.8-4.8
			c4.2,0,7.2,1,9.1,3.1c1.9,2.1,2.8,4.9,2.8,8.4c0,3.8-0.9,8.2-2.7,12.9c-1.8,4.8-3.8,8.9-6,12.5c-2.5-0.5-3.8-2.2-3.8-5
			c0-1.5,0.3-3.1,0.9-5s1.4-4.2,2.5-6.9c1.1-3,2-5.4,2.6-7.3c0.6-1.9,0.9-3.6,0.9-5c0-1.6-0.5-2.8-1.4-3.7c-1-0.8-2.6-1.3-5-1.3
			c-4.5,0-8.6,1.4-12.5,4.2c-3.8,2.8-6.9,6.2-9.2,10.2c-2.3,4-3.4,7.7-3.4,11c0,2.5,0.7,4.7,2,6.6c1.3,1.9,3,3.6,5,5
			c2,1.4,4.7,3.1,8.1,5c4.1,2.4,7.4,4.5,9.9,6.4c2.5,1.9,4.7,4.3,6.4,7.2c1.8,2.9,2.7,6.3,2.7,10.2c0,5.1-1.5,9.5-4.4,13.2
			c-2.9,3.7-6.7,6.5-11.2,8.5c-4.6,2-9.3,2.9-14.1,2.9C40.6,131.8,36.7,131,33,129.5z"/>
	</g>
</g>
<circle class="st0" cx="92" cy="88" r="78"/>
</svg>
